<svg id="SvgjsSvg1019" width="288" height="288" xmlns="http://www.w3.org/2000/svg" version="1.1" xmlns:xlink="http://www.w3.org/1999/xlink" xmlns:svgjs="http://svgjs.com/svgjs"><defs id="SvgjsDefs1020"></defs><g id="SvgjsG1021"><svg xmlns="http://www.w3.org/2000/svg" viewBox="0 0 24 24" width="288" height="288"><path stroke="#737373" stroke-linecap="round" stroke-width="1.5" d="M2 12C2 8.22876 2 6.34315 3.17157 5.17157 4.34315 4 6.22876 4 10 4H11.5C15.2712 4 17.1569 4 18.3284 5.17157 19.5 6.34315 19.5 8.22876 19.5 12 19.5 15.7712 19.5 17.6569 18.3284 18.8284 17.1569 20 15.2712 20 11.5 20H10C6.22876 20 4.34315 20 3.17157 18.8284 2.51839 18.1752 2.22937 17.3001 2.10149 16M22 14L22 10" fill="none" class="svgStroke colorStroke1c274c-0 selectable" data-darkreader-inline-stroke="" style="--darkreader-inline-stroke: var(--darkreader-text-737373, #9f978b);"></path><path stroke="#737373" stroke-linecap="round" stroke-width="1.5" d="M7 9C7 9 7.5 9.9 7.5 12 7.5 14.1 7 15 7 15M10.5 9C10.5 9 11 9.9 11 12 11 14.1 10.5 15 10.5 15M14 9C14 9 14.5 9.9 14.5 12 14.5 14.1 14 15 14 15" fill="none" class="svgStroke colorStroke1c274c-1 selectable" data-darkreader-inline-stroke="" style="--darkreader-inline-stroke: var(--darkreader-text-737373, #9f978b);"></path></svg></g></svg>